<?xml version="1.0" encoding="UTF-8" standalone="no"?><!DOCTYPE svg PUBLIC "-//W3C//DTD SVG 1.1//EN" "http://www.w3.org/Graphics/SVG/1.1/DTD/svg11.dtd"><svg width="100%" height="100%" viewBox="0 0 10 7" version="1.1" xmlns="http://www.w3.org/2000/svg" xmlns:xlink="http://www.w3.org/1999/xlink" xml:space="preserve" xmlns:serif="http://www.serif.com/" style="fill-rule:evenodd;clip-rule:evenodd;stroke-linecap:round;stroke-linejoin:round;stroke-miterlimit:1.5;"><rect x="0" y="2.897" width="1.5" height="3.611" style="fill:#1360c1;"/><rect x="2.25" y="1.453" width="1.5" height="5.056" style="fill:#1360c1;"/><rect x="4.5" y="0.008" width="1.5" height="6.5" style="fill:#1360c1;"/><path d="M9.238,0.406l-1.993,2.522" style="fill:none;stroke:#1360c1;stroke-width:0.4px;"/><path d="M7.217,0.133c-0.12,0 -0.217,0.098 -0.217,0.217l0,0.716c0,0.12 0.097,0.217 0.217,0.217l0.434,0c0.119,0 0.217,-0.097 0.217,-0.217l0,-0.716c0,-0.119 -0.098,-0.217 -0.217,-0.217l-0.434,0Z" style="fill:none;stroke:#1360c1;stroke-width:0.27px;"/><path d="M8.849,1.858c-0.119,0 -0.217,0.098 -0.217,0.217l0,0.716c0,0.12 0.098,0.217 0.217,0.217l0.434,0c0.12,0 0.217,-0.097 0.217,-0.217l0,-0.716c0,-0.119 -0.097,-0.217 -0.217,-0.217l-0.434,0Z" style="fill:none;stroke:#1360c1;stroke-width:0.31px;"/></svg>